<?xml version="1.0" encoding="UTF-8" standalone="no"?>
<!-- Created with Inkscape (http://www.inkscape.org/) -->

<svg
   width="70.645203mm"
   height="97.88353mm"
   viewBox="0 0 70.645203 97.88353"
   version="1.1"
   id="svg1"
   xml:space="preserve"
   xmlns:inkscape="http://www.inkscape.org/namespaces/inkscape"
   xmlns:sodipodi="http://sodipodi.sourceforge.net/DTD/sodipodi-0.dtd"
   xmlns="http://www.w3.org/2000/svg"
   xmlns:svg="http://www.w3.org/2000/svg"><sodipodi:namedview
     id="namedview1"
     pagecolor="#505050"
     bordercolor="#eeeeee"
     borderopacity="1"
     inkscape:showpageshadow="0"
     inkscape:pageopacity="0"
     inkscape:pagecheckerboard="0"
     inkscape:deskcolor="#505050"
     inkscape:document-units="mm"><inkscape:page
       x="0"
       y="0"
       width="70.645203"
       height="97.88353"
       id="page2"
       margin="0"
       bleed="0" /></sodipodi:namedview><defs
     id="defs1" /><g
     inkscape:label="Layer 1"
     inkscape:groupmode="layer"
     id="layer1"
     transform="translate(208.49166,-116.41667)"><g
       id="g1"
       transform="translate(-88.495081,74.494366)"><path
         style="fill:#d7003a;fill-opacity:1"
         d="m -113.11742,139.298 c -2.23423,-0.57924 -4.81401,-1.79721 -6.12519,-2.89184 -0.80247,-0.66993 -0.84895,-0.78711 -0.53974,-1.36078 0.18609,-0.34525 0.85124,-1.21724 1.4781,-1.93775 l 1.13975,-1.31003 1.03135,0.79363 c 1.63057,1.25472 2.32067,1.63262 4.03773,2.21105 3.82905,1.28992 7.70925,0.0248 7.70925,-2.51346 0,-0.6377 -0.20912,-1.0428 -0.7911,-1.53251 -0.80682,-0.67889 -1.21666,-0.78839 -6.67759,-1.78413 -3.98961,-0.72745 -5.53179,-1.57841 -6.60888,-3.64672 -1.28818,-2.47369 -0.93732,-5.48507 0.87957,-7.54917 2.86195,-3.25135 9.93865,-3.75385 15.36146,-1.0908 0.77463,0.38041 1.68889,0.90436 2.03168,1.16434 l 0.62326,0.47268 -1.38337,1.896 c -0.76086,1.04281 -1.4401,1.89601 -1.50943,1.89601 -0.0693,0 -0.81194,-0.42335 -1.65025,-0.94079 -1.96224,-1.21116 -3.68556,-1.72335 -5.83249,-1.73346 -2.77668,-0.0131 -4.23244,0.84538 -4.23244,2.49584 0,1.60654 0.71772,1.96609 5.6111,2.81088 4.52239,0.78074 5.8442,1.25337 7.45104,2.66419 1.91941,1.68527 2.41142,5.1293 1.11213,7.78495 -1.10497,2.25847 -3.0411,3.57637 -6.24378,4.25008 -2.47923,0.52152 -4.45312,0.47895 -6.87216,-0.14821 z m 16.66875,-12.00343 v -12.05921 h 5.38164 c 4.51646,0 5.71442,0.0851 7.45168,0.52943 6.30576,1.61274 9.86856,6.87976 9.08275,13.42734 -0.46065,3.8382 -2.78391,6.88569 -6.7472,8.85051 l -2.2945,1.13751 -6.43718,0.0868 -6.43719,0.0868 z m 12.62104,6.5502 c 1.70482,-0.88782 3.25833,-2.6746 3.74883,-4.31176 1.00457,-3.35297 -0.62944,-7.15873 -3.78547,-8.81668 -0.87326,-0.45875 -1.65849,-0.5844 -4.18388,-0.66948 l -3.10885,-0.10473 v 7.47019 7.47019 l 2.8976,-0.11939 c 2.58083,-0.10633 3.06533,-0.20673 4.43177,-0.91834 z m 9.0748,5.34774 c 0,-0.066 2.19718,-5.45354 4.88263,-11.97239 l 4.88264,-11.85247 3.00697,-0.0741 3.00698,-0.0741 4.81183,11.84809 c 2.64651,6.51645 4.81118,11.94141 4.81039,12.05548 -7.9e-4,0.11406 -1.25972,0.17359 -2.79761,0.13229 l -2.79617,-0.0751 -1.13705,-2.91042 -1.13705,-2.91041 -4.8918,-0.0719 -4.89181,-0.0718 -1.15602,3.04841 -1.15601,3.0484 h -2.71896 c -1.49543,0 -2.71896,-0.054 -2.71896,-0.11993 z m 15.19971,-11.98476 c -1.9441,-5.17639 -2.34136,-6.15156 -2.50599,-6.15156 -0.1417,0 -1.63175,3.64761 -3.05334,7.47448 -0.15785,0.42494 0.0913,0.46302 3.02904,0.46302 h 3.20103 z"
         id="path15"
         sodipodi:nodetypes="sssscssssssssscssssssssssccscssccccsssscccsssscccssscccccccssssssscs"
         inkscape:export-filename="SDA.svg"
         inkscape:export-xdpi="96"
         inkscape:export-ydpi="96" /></g></g></svg>
