<?xml version="1.0" encoding="UTF-8" standalone="no"?>
<!-- Created with Inkscape (http://www.inkscape.org/) -->

<svg
   width="70.645203mm"
   height="97.88353mm"
   viewBox="0 0 70.645203 97.88353"
   version="1.1"
   id="svg1"
   xml:space="preserve"
   xmlns:inkscape="http://www.inkscape.org/namespaces/inkscape"
   xmlns:sodipodi="http://sodipodi.sourceforge.net/DTD/sodipodi-0.dtd"
   xmlns="http://www.w3.org/2000/svg"
   xmlns:svg="http://www.w3.org/2000/svg"><sodipodi:namedview
     id="namedview1"
     pagecolor="#505050"
     bordercolor="#eeeeee"
     borderopacity="1"
     inkscape:showpageshadow="0"
     inkscape:pageopacity="0"
     inkscape:pagecheckerboard="0"
     inkscape:deskcolor="#505050"
     inkscape:document-units="mm"><inkscape:page
       x="0"
       y="0"
       width="70.645203"
       height="97.88353"
       id="page2"
       margin="0"
       bleed="0" /></sodipodi:namedview><defs
     id="defs1" /><g
     inkscape:label="Layer 1"
     inkscape:groupmode="layer"
     id="layer1"
     transform="translate(208.49166,-116.41667)"><g
       id="g1"
       transform="translate(-88.495081,74.494366)"><path
         style="fill:#D31F4F;fill-opacity:1"
         d="M -83.40213,103.26296 c 0.90051,-0.8612 3.02659,-2.28941 5.59481,-3.758333 5.1009,-2.91753 6.92936,-4.50025 8.20937,-7.10609 1.12507,-2.290411 1.40931,-4.39138 0.93453,-6.907617 l -0.33045,-1.751345 -1.11024,1.02338 c -1.49413,1.377239 -2.92449,2.183862 -6.94438,3.916136 -3.83624,1.653134 -4.72163,2.144788 -6.50174,3.610396 l -1.25677,1.03473 -1.25677,-1.02885 c -1.86111,-1.523584 -2.42196,-1.833947 -6.85297,-3.79229 -3.99353,-1.764996 -6.45791,-3.264305 -6.98535,-4.249834 -0.44333,-0.828376 -0.69066,-0.583984 -1.00797,0.99603 -0.79452,3.956223 0.21767,7.264794 3.10535,10.150544 1.34588,1.34498 2.97508,2.40536 8.5117,5.539963 0.89177,0.50488 2.23617,1.5327 2.98756,2.28404 0.75139,0.75134 1.38522,1.38005 1.40852,1.39714 0.0233,0.0171 0.69596,-0.59401 1.4948,-1.358  z m -14.89862,-6.699413 c 0,-0.083 -0.46569,-0.70811 -1.03487,-1.38906 -2.19114,-2.62143 -3.13893,-5.808092 -2.66619,-8.964352 0.14817,-0.989307 0.29739,-2.022029 0.33159,-2.294939 0.045,-0.358964 -0.21131,-0.592637 -0.92668,-0.844891 -2.39421,-0.844256 -5.0154,-3.360665 -6.23759,-5.988253 -0.39108,-0.840779 -0.7783,-1.529929 -0.86049,-1.531444 -0.0822,-0.0015 -0.37321,0.443729 -0.64673,0.989432 -0.40566,0.80937 -0.5273,1.845336 -0.66013,5.622397 -0.0914,2.59787 -0.30107,4.957136 -0.47775,5.375037 -0.51727,1.223456 -0.38658,1.460335 1.26598,2.294542 0.89145,0.450002 2.54809,1.709079 3.79869,2.887071 2.28865,2.15576 3.69671,3.17426 5.07146,3.66837 0.84275,0.3029 3.04271,0.43022 3.04271,0.17609  z m 30.86826,-0.51619 c 0.73636,-0.36694 2.38909,-1.62652 3.67274,-2.79907 2.65272,-2.423113 4.22138,-3.568058 5.23817,-3.823256 0.82516,-0.207102 0.88201,-0.697484 0.30234,-2.608291 -0.25997,-0.856972 -0.39401,-2.440331 -0.39401,-4.654303 0,-3.321772 -0.35339,-5.368301 -1.07768,-6.241017 -0.27709,-0.333877 -0.44724,-0.147811 -1.09057,1.192583 -1.12202,2.337769 -3.02847,4.283015 -5.3788,5.488248 -1.43746,0.73712 -1.9383,1.12416 -1.82749,1.412269 1.25099,3.252851 0.31577,7.957497 -2.1945,11.039427 -0.62203,0.76368 -1.13096,1.44973 -1.13096,1.52454 0,0.43189 2.68592,0.0643 3.88076,-0.53113  z m -15.80812,-6.950393 c 2.86069,-3.571397 4.64718,-7.472619 5.02008,-10.962576 0.10535,-0.986032 0.1432,-1.792785 0.0841,-1.792785 -0.0591,0 -0.63498,0.586733 -1.27973,1.303851 -1.53782,1.710433 -2.98564,2.273531 -5.78773,2.25102 -2.53819,-0.02039 -4.10887,-0.664719 -5.5742,-2.286665 -1.24888,-1.382368 -1.70317,-2.517077 -1.69603,-4.236271 0.008,-1.927191 0.7492,-3.438278 2.13691,-4.356623 0.95845,-0.634268 1.39447,-0.745104 2.93119,-0.745104 0.99289,0 1.80526,-0.068 1.80526,-0.151103 0,-0.08311 -0.51306,-0.686567 -1.14014,-1.341022 -1.56027,-1.628385 -3.25348,-2.401001 -5.57901,-2.54572 -1.7338,-0.107896 -2.01255,-0.04791 -3.58878,0.772317 -2.06658,1.075383 -2.99325,2.29116 -3.63521,4.769315 -0.39902,1.540301 -0.4159,2.01445 -0.13091,3.676396 0.65231,3.803955 2.73137,6.66183 8.33142,11.452382 1.776,1.51927 3.94066,3.489319 4.81036,4.377886 0.8697,0.888567 1.66631,1.584877 1.77023,1.547355 0.10393,-0.03752 0.78891,-0.817216 1.52218,-1.732653  z m -5.66796,-0.320796 c -0.0902,-0.14599 -1.49624,-1.378243 -3.12447,-2.738341 -4.44514,-3.713123 -6.27785,-5.81232 -8.00333,-9.167057 -0.88973,-1.729836 -1.02786,-1.453056 -0.85332,1.70987 0.13968,2.531094 0.91823,4.289897 2.55258,5.766431 1.25945,1.137839 1.85312,1.470068 5.85719,3.27779 3.05521,1.379338 3.87577,1.643864 3.57135,1.151307  z m 13.00047,-1.758792 c 5.67603,-2.553663 7.24068,-4.585114 7.24068,-9.400879 0,-2.227545 -0.23274,-2.594408 -0.7458,-1.175569 -0.95595,2.643633 -3.85231,6.035245 -8.42173,9.861782 -3.91474,3.278293 -3.83614,3.307447 1.92685,0.714666  z m -0.95335,-3.374867 c 6.23783,-5.398338 8.38971,-10.533523 6.34956,-15.152399 -1.90647,-4.316231 -7.0819,-5.612422 -11.19354,-2.803429 -0.94047,0.642511 -2.5724,2.567362 -2.5724,3.034129 0,0.116852 0.56554,0.215074 1.25677,0.21827 1.60258,0.0074 3.15239,0.71253 4.20759,1.914337 1.21234,1.380774 1.54793,2.604634 1.54116,5.620478 -0.006,2.840648 -0.6063,5.358484 -1.87183,7.855885 -1.0828,2.136803 -0.926,2.089594 2.28269,-0.687271  z m -24.7298,-1.943093 c -0.50609,-2.078259 -0.4644,-5.153922 0.11819,-8.718034 0.81499,-4.985909 1.25079,-6.063118 3.17278,-7.842547 1.99887,-1.850597 3.54545,-2.404687 6.23094,-2.232343 2.36952,0.152067 4.33042,1.040868 6.1081,2.768575 1.17987,1.146701 1.2633,1.183513 1.61457,0.712341 0.85281,-1.143921 -0.45169,-4.574903 -2.60516,-6.851879 -1.67727,-1.773475 -3.89745,-2.912919 -6.48876,-3.33018 -2.7896,-0.44919 -4.88135,0.0971 -9.76228,2.54956 -2.16327,1.086952 -4.11816,1.976941 -4.3442,1.977752 -0.22603,8.12e-4 -0.84604,0.122317 -1.37778,0.270012 l -0.96681,0.268537 0.36836,1.383634 c 0.24229,0.910129 0.36943,2.859754 0.37149,5.697028 0.004,5.25819 0.39893,7.300393 1.83762,9.49842 1.24932,1.908705 2.13427,2.744366 3.98834,3.766213 1.79275,0.988052 1.95693,0.9959 1.7346,0.08291  z m 35.08388,0.04417 c 2.63098,-1.333223 4.8258,-4.186467 5.68185,-7.386354 0.22591,-0.844472 0.35654,-2.901784 0.36118,-5.688542 0.005,-2.707691 0.14256,-4.940505 0.36351,-5.879383 0.19594,-0.832567 0.29499,-1.575015 0.22012,-1.649884 -0.0749,-0.07487 -0.73839,-0.216019 -1.4745,-0.313666 -0.86741,-0.115067 -2.5058,-0.774334 -4.65601,-1.873524 -3.82763,-1.956681 -5.59349,-2.597244 -7.81557,-2.835084 -3.43899,-0.368091 -7.8823,1.597246 -9.77021,4.321499 l -0.66599,0.961022 0.56912,1.583989 c 0.31301,0.871194 0.58955,1.615819 0.61453,1.654723 0.025,0.0389 0.86686,-0.315757 1.87085,-0.788134 3.53593,-1.663643 7.06861,-1.267747 9.68895,1.085807 1.71598,1.541271 2.43332,3.047581 3.10909,6.528687 0.78835,4.060969 0.94932,7.263856 0.46784,9.308636 -0.21416,0.909505 -0.2823,1.653646 -0.15142,1.653646 0.13087,0 0.84487,-0.307547 1.58666,-0.683438  z m -15.45426,-3.278681 c 3.71443,-1.686016 4.36917,-6.376474 1.11811,-8.009866 -3.29988,-1.657915 -7.23417,1.299959 -5.69306,4.280145 0.2129,0.411701 0.57983,0.822507 0.81539,0.912902 0.71053,0.272657 2.11053,0.185101 2.44877,-0.153146 0.38463,-0.384625 0.42078,-1.704109 0.0529,-1.931458 -0.42943,-0.2654 -0.30269,-0.661459 0.21167,-0.661459 0.73796,0 1.11125,0.543147 1.11125,1.616897 0,1.853844 -2.33853,2.968135 -4.2254,2.013369 -0.93647,-0.47386 -1.86002,-1.9716 -1.86002,-3.016433 0,-1.169868 0.55617,-2.442037 1.41295,-3.23198 0.89321,-0.823517 0.6908,-1.086019 -0.83738,-1.086019 -5.47086,0 -5.53178,7.475166 -0.0768,9.424559 1.45966,0.521626 4.19748,0.443527 5.52161,-0.157511  z m -2.23788,-18.771938 c 0.63826,-1.080495 3.34793,-3.053114 5.08836,-3.704293 0.80236,-0.300199 2.11121,-0.622492 2.90857,-0.716206 0.93846,-0.110297 1.44975,-0.293576 1.44975,-0.519683 0,-0.466432 -1.95867,-1.577961 -3.43959,-1.951943 -2.59302,-0.654825 -4.51152,-1.397442 -5.54584,-2.146699 l -1.08462,-0.785695 -0.85195,0.635669 c -1.28295,0.957236 -1.8135,1.184968 -4.68789,2.012214 -2.76704,0.796348 -4.59267,1.714491 -4.42274,2.224281 0.0552,0.165573 0.70407,0.387926 1.44195,0.494117 3.01609,0.434057 6.12029,2.103957 7.56511,4.069635 0.46151,0.62788 0.90273,1.146244 0.9805,1.15192 0.0778,0.0057 0.34704,-0.337818 0.59839,-0.763317 z"
         id="path1" /></g></g></svg>
